<svg width="1200" height="400" viewBox="0 0 1200 400" fill="none" xmlns="http://www.w3.org/2000/svg">
<rect width="1200" height="400" fill="#31A9ED"/>
<rect x="167" y="100" width="200" height="200" rx="50" fill="#31A9ED"/>
<rect width="160" height="160" transform="translate(187 120)" fill="#31A9ED"/>
<path d="M266.082 155.692C267.083 156.272 268.375 156.001 269.006 155.031L271.419 151.323C272.193 150.133 271.863 148.537 270.634 147.826C269.406 147.115 267.85 147.62 267.204 148.885L265.192 152.825C264.666 153.855 265.081 155.113 266.082 155.692Z" fill="white"/>
<path d="M246.08 150.339C247.237 150.339 248.222 149.456 248.282 148.301L248.51 143.875C248.583 142.462 247.496 141.25 246.08 141.25C244.665 141.25 243.578 142.462 243.651 143.875L243.879 148.301C243.939 149.456 244.924 150.339 246.08 150.339Z" fill="white"/>
<path d="M226.079 155.692C227.08 155.113 227.494 153.855 226.969 152.825L224.957 148.885C224.311 147.62 222.755 147.115 221.527 147.826C220.298 148.537 219.968 150.133 220.742 151.323L223.155 155.031C223.786 156.001 225.078 156.272 226.079 155.692Z" fill="white"/>
<path d="M211.442 170.329C212.022 169.328 211.751 168.036 210.781 167.405L207.073 164.992C205.883 164.218 204.287 164.548 203.576 165.777C202.865 167.005 203.37 168.561 204.635 169.207L208.575 171.219C209.605 171.744 210.863 171.33 211.442 170.329Z" fill="white"/>
<path d="M204.051 188.129C205.206 188.189 206.089 189.174 206.089 190.33C206.089 191.487 205.206 192.472 204.051 192.532L199.625 192.76C198.212 192.833 197 191.746 197 190.33C197 188.915 198.212 187.828 199.625 187.901L204.051 188.129Z" fill="white"/>
<path d="M268.871 165.601C262.879 160.076 254.874 156.701 246.08 156.701C227.508 156.701 212.451 171.758 212.451 190.33C212.451 191.688 212.532 193.026 212.688 194.341C218.123 190.787 224.619 188.721 231.598 188.721C234.428 188.721 237.183 189.062 239.821 189.705C245.663 178.106 256.163 169.25 268.871 165.601Z" fill="white"/>
<path opacity="0.54" d="M231.598 253.894C214.712 253.894 201.023 240.205 201.023 223.319C201.023 206.433 214.712 192.744 231.598 192.744C235.259 192.744 238.77 193.388 242.024 194.568C248.444 178.865 263.872 167.802 281.885 167.802C305.659 167.802 324.931 187.074 324.931 210.848C324.931 211.895 324.894 212.934 324.82 213.962C332.009 217.272 337 224.54 337 232.974C337 244.528 327.634 253.894 316.08 253.894H231.598Z" fill="white"/>
<path d="M430.709 220.623L443.736 165.594H451.014L452.676 174.758L438.795 231H430.979L430.709 220.623ZM424.016 165.594L434.797 220.623L433.898 231H425.184L410.674 165.594H424.016ZM464.131 220.398L474.777 165.594H488.119L473.654 231H464.939L464.131 220.398ZM455.102 165.594L468.219 220.848L467.859 231H460.043L446.072 174.713L447.869 165.594H455.102ZM539.33 220.488V231H504.516V220.488H539.33ZM508.918 165.594V231H495.441V165.594H508.918ZM534.793 192.232V202.475H504.516V192.232H534.793ZM539.285 165.594V176.15H504.516V165.594H539.285ZM573.785 176.779L555.996 231H541.666L565.969 165.594H575.088L573.785 176.779ZM588.564 231L570.73 176.779L569.293 165.594H578.502L602.939 231H588.564ZM587.756 206.652V217.209H553.211V206.652H587.756ZM632.678 165.594V231H619.246V165.594H632.678ZM652.803 165.594V176.15H599.436V165.594H652.803ZM704.104 192.232V202.744H669.963V192.232H704.104ZM673.961 165.594V231H660.484V165.594H673.961ZM713.717 165.594V231H700.285V165.594H713.717ZM769.33 220.488V231H734.516V220.488H769.33ZM738.918 165.594V231H725.441V165.594H738.918ZM764.793 192.232V202.475H734.516V192.232H764.793ZM769.285 165.594V176.15H734.516V165.594H769.285ZM777.191 165.594H801.584C806.585 165.594 810.883 166.342 814.477 167.84C818.1 169.337 820.885 171.553 822.832 174.488C824.779 177.423 825.752 181.032 825.752 185.314C825.752 188.818 825.153 191.828 823.955 194.344C822.787 196.829 821.125 198.911 818.969 200.588C816.842 202.235 814.342 203.553 811.467 204.541L807.199 206.787H785.996L785.906 196.275H801.674C804.04 196.275 806.001 195.856 807.559 195.018C809.116 194.179 810.284 193.011 811.062 191.514C811.871 190.016 812.275 188.279 812.275 186.303C812.275 184.206 811.886 182.395 811.107 180.867C810.329 179.34 809.146 178.172 807.559 177.363C805.971 176.555 803.98 176.15 801.584 176.15H790.668V231H777.191V165.594ZM813.758 231L798.844 201.846L813.084 201.756L828.178 230.371V231H813.758Z" fill="#A0D7F7"/>
<path d="M842.283 165.594H853.693L870.494 213.615L887.295 165.594H898.705L875.076 231H865.912L842.283 165.594ZM836.129 165.594H847.494L849.561 212.402V231H836.129V165.594ZM893.494 165.594H904.904V231H891.428V212.402L893.494 165.594ZM944.121 176.779L926.332 231H912.002L936.305 165.594H945.424L944.121 176.779ZM958.9 231L941.066 176.779L939.629 165.594H948.838L973.275 231H958.9ZM958.092 206.652V217.209H923.547V206.652H958.092ZM990.436 165.594L1002.74 188.414L1015.05 165.594H1030.46L1011.46 198.027L1030.96 231H1015.41L1002.74 207.73L990.076 231H974.443L993.984 198.027L974.938 165.594H990.436Z" fill="white"/>
</svg>
