<svg width="200" height="200" viewBox="0 0 200 200" fill="none" xmlns="http://www.w3.org/2000/svg">
<rect width="200" height="200" rx="50" fill="#31A9ED"/>
<path d="M99.0819 55.6924C100.083 56.2717 101.375 56.0008 102.006 55.0315L104.419 51.3231C105.193 50.1332 104.863 48.5367 103.634 47.8257C102.406 47.1146 100.85 47.6203 100.204 48.8847L98.1924 52.8252C97.6665 53.8552 98.0809 55.1131 99.0819 55.6924Z" fill="white"/>
<path d="M79.0805 50.339C80.2372 50.339 81.2223 49.4564 81.2818 48.3012L81.5101 43.8753C81.583 42.4618 80.4958 41.25 79.0805 41.25C77.6651 41.25 76.5779 42.4618 76.6508 43.8753L76.8791 48.3012C76.9387 49.4564 77.9237 50.339 79.0805 50.339Z" fill="white"/>
<path d="M59.079 55.6924C60.08 55.1131 60.4944 53.8552 59.9685 52.8252L57.9567 48.8847C57.3112 47.6203 55.7554 47.1146 54.5266 47.8257C53.2979 48.5368 52.9677 50.1332 53.742 51.3231L56.1551 55.0315C56.7859 56.0009 58.078 56.2717 59.079 55.6924Z" fill="white"/>
<path d="M44.4424 70.329C45.0217 69.328 44.7508 68.0359 43.7815 67.4051L40.0731 64.992C38.8832 64.2177 37.2867 64.5479 36.5757 65.7766C35.8646 67.0054 36.3703 68.5612 37.6347 69.2067L41.5752 71.2185C42.6052 71.7444 43.8631 71.33 44.4424 70.329Z" fill="white"/>
<path d="M37.0512 88.1291C38.2064 88.1887 39.089 89.1737 39.089 90.3305C39.089 91.4872 38.2064 92.4723 37.0512 92.5318L32.6253 92.7601C31.2118 92.833 30 91.7458 30 90.3305C30 88.9151 31.2118 87.8279 32.6253 87.9008L37.0512 88.1291Z" fill="white"/>
<path d="M101.871 65.6011C95.8785 60.0761 87.8736 56.7013 79.0805 56.7013C60.5076 56.7013 45.4513 71.7576 45.4513 90.3305C45.4513 91.6877 45.5317 93.0262 45.688 94.3414C51.1231 90.7874 57.6191 88.7213 64.5977 88.7213C67.4278 88.7213 70.1825 89.0619 72.8212 89.7055C78.6626 78.106 89.1635 69.2495 101.871 65.6011Z" fill="white"/>
<path opacity="0.54" d="M64.5977 153.894C47.7117 153.894 34.0229 140.205 34.0229 123.319C34.0229 106.433 47.7117 92.7442 64.5977 92.7442C68.2591 92.7442 71.7701 93.3878 75.0239 94.568C81.4437 78.8654 96.8723 67.8017 114.885 67.8017C138.659 67.8017 157.931 87.074 157.931 110.848C157.931 111.895 157.894 112.934 157.82 113.962C165.009 117.272 170 124.54 170 132.974C170 144.528 160.634 153.894 149.08 153.894H64.5977Z" fill="white"/>
</svg>
