<svg width="257" height="256" viewBox="0 0 257 256" fill="none" xmlns="http://www.w3.org/2000/svg">
<path d="M127.031 57.1079C128.633 58.0347 130.7 57.6014 131.709 56.0504L135.57 50.117C136.809 48.2131 136.281 45.6588 134.315 44.5211C132.349 43.3834 129.86 44.1924 128.827 46.2154L125.608 52.5203C124.766 54.1684 125.429 56.181 127.031 57.1079Z" fill="#949AB5"/>
<path d="M95.0287 48.5424C96.8795 48.5424 98.4556 47.1302 98.5509 45.2819L98.9161 38.2004C99.0328 35.9388 97.2933 34 95.0287 34C92.7641 34 91.0247 35.9389 91.1413 38.2004L91.5065 45.2819C91.6018 47.1302 93.178 48.5424 95.0287 48.5424Z" fill="#949AB5"/>
<path d="M63.0264 57.1079C64.628 56.181 65.2911 54.1684 64.4497 52.5203L61.2307 46.2154C60.1979 44.1924 57.7086 43.3834 55.7426 44.5211C53.7766 45.6588 53.2483 48.2131 54.4872 50.117L58.3482 56.0504C59.3574 57.6014 61.4248 58.0347 63.0264 57.1079Z" fill="#949AB5"/>
<path d="M39.6079 80.5264C40.5347 78.9248 40.1014 76.8575 38.5504 75.8482L32.617 71.9872C30.7131 70.7483 28.1588 71.2767 27.0211 73.2426C25.8834 75.2086 26.6924 77.6979 28.7154 78.7307L35.0203 81.9497C36.6684 82.7911 38.681 82.128 39.6079 80.5264Z" fill="#949AB5"/>
<path d="M27.7819 109.007C29.6302 109.102 31.0424 110.678 31.0424 112.529C31.0424 114.379 29.6302 115.956 27.7819 116.051L20.7004 116.416C18.4389 116.533 16.5 114.793 16.5 112.529C16.5 110.264 18.4388 108.525 20.7004 108.641L27.7819 109.007Z" fill="#949AB5"/>
<path d="M131.493 72.9617C121.906 64.1217 109.098 58.722 95.0288 58.722C65.3121 58.722 41.222 82.8121 41.222 112.529C41.222 114.7 41.3507 116.842 41.6008 118.946C50.2969 113.26 60.6906 109.954 71.8563 109.954C76.3845 109.954 80.792 110.499 85.014 111.529C94.3601 92.9696 111.162 78.7993 131.493 72.9617Z" fill="#949AB5"/>
<path opacity="0.54" d="M71.8563 214.23C44.8388 214.23 22.9368 192.328 22.9368 165.311C22.9368 138.293 44.8388 116.391 71.8563 116.391C77.7145 116.391 83.3323 117.421 88.5383 119.309C98.8099 94.1849 123.496 76.4829 152.316 76.4829C190.354 76.4829 221.19 107.319 221.19 145.356C221.19 147.032 221.13 148.694 221.012 150.34C232.515 155.636 240.5 167.265 240.5 180.759C240.5 199.244 225.514 214.23 207.029 214.23H71.8563Z" fill="#949AB5"/>
</svg>
