<svg width="56" height="56" viewBox="0 0 56 56" fill="none" xmlns="http://www.w3.org/2000/svg">
<path d="M27.6787 12.4923C28.029 12.6951 28.4813 12.6003 28.702 12.261L29.5466 10.9631C29.8176 10.5466 29.7021 9.98786 29.272 9.73899C28.8419 9.49012 28.2974 9.66709 28.0715 10.1096L27.3673 11.4888C27.1833 11.8493 27.3283 12.2896 27.6787 12.4923Z" fill="#31A9ED"/>
<path d="M20.6782 10.6186C21.083 10.6186 21.4278 10.3097 21.4486 9.90541L21.5285 8.35635C21.554 7.86162 21.1735 7.4375 20.6782 7.4375C20.1828 7.4375 19.8023 7.86162 19.8278 8.35635L19.9077 9.90541C19.9285 10.3097 20.2733 10.6186 20.6782 10.6186Z" fill="#31A9ED"/>
<path d="M13.6777 12.4923C14.028 12.2896 14.1731 11.8493 13.989 11.4888L13.2849 10.1096C13.0589 9.66709 12.5144 9.49012 12.0843 9.73899C11.6543 9.98786 11.5387 10.5466 11.8097 10.9631L12.6543 12.261C12.8751 12.6003 13.3273 12.6951 13.6777 12.4923Z" fill="#31A9ED"/>
<path d="M8.55484 17.6152C8.75759 17.2648 8.6628 16.8126 8.32352 16.5918L7.02559 15.7472C6.60912 15.4762 6.05036 15.5918 5.80149 16.0218C5.55262 16.4519 5.72959 16.9964 6.17213 17.2224L7.55132 17.9265C7.91183 18.1106 8.3521 17.9655 8.55484 17.6152Z" fill="#31A9ED"/>
<path d="M5.96791 23.8452C6.37223 23.866 6.68114 24.2108 6.68114 24.6157C6.68114 25.0205 6.37223 25.3653 5.96791 25.3861L4.41885 25.466C3.92412 25.4915 3.5 25.111 3.5 24.6157C3.5 24.1203 3.92412 23.7398 4.41885 23.7653L5.96791 23.8452Z" fill="#31A9ED"/>
<path d="M28.6547 15.9604C26.5575 14.0266 23.7558 12.8454 20.6782 12.8454C14.1777 12.8454 8.90795 18.1152 8.90795 24.6157C8.90795 25.0907 8.93609 25.5592 8.9908 26.0195C10.8931 24.7756 13.1667 24.0524 15.6092 24.0524C16.5997 24.0524 17.5639 24.1717 18.4874 24.3969C20.5319 20.3371 24.2072 17.2373 28.6547 15.9604Z" fill="#31A9ED"/>
<path opacity="0.54" d="M15.6092 46.8629C9.69915 46.8629 4.90808 42.0718 4.90808 36.1617C4.90808 30.2517 9.69915 25.4606 15.6092 25.4606C16.8907 25.4606 18.1196 25.6859 19.2584 26.0989C21.5053 20.603 26.9054 16.7307 33.2098 16.7307C41.5306 16.7307 48.2759 23.476 48.2759 31.7968C48.2759 32.1634 48.2628 32.5268 48.2371 32.8868C50.7533 34.0454 52.5 36.5893 52.5 39.5411C52.5 43.5848 49.2219 46.8629 45.1782 46.8629H15.6092Z" fill="#31A9ED"/>
</svg>
