<svg width="24" height="24" viewBox="0 0 24 24" fill="none" xmlns="http://www.w3.org/2000/svg">
<path d="M12 3V4.5" stroke="#31A9ED" stroke-width="1.5" stroke-linecap="round"/>
<path d="M17 13C17 10.2386 14.7614 8 12 8C9.23858 8 7 10.2386 7 13" stroke="#31A9ED" stroke-width="1.5" stroke-linecap="round"/>
<path d="M5.98827 6.98925L4.92761 5.92859" stroke="#31A9ED" stroke-width="1.5" stroke-linecap="round"/>
<path d="M22 13H20.5" stroke="#31A9ED" stroke-width="1.5" stroke-linecap="round"/>
<path d="M3.5 13H2" stroke="#31A9ED" stroke-width="1.5" stroke-linecap="round"/>
<path d="M19.0702 5.92871L18.0096 6.98937" stroke="#31A9ED" stroke-width="1.5" stroke-linecap="round"/>
<path d="M6.5 16V19C6.5 19.9428 6.5 20.4142 6.79289 20.7071C7.08579 21 7.55719 21 8.5 21C9.44281 21 9.91421 21 10.2071 20.7071C10.5 20.4142 10.5 19.9428 10.5 19V16" stroke="#31A9ED" stroke-width="1.5" stroke-linecap="round"/>
<path d="M13.5 16L15.5 21L17.5 16" stroke="#31A9ED" stroke-width="1.5" stroke-linecap="round" stroke-linejoin="round"/>
</svg>
